<svg width="253" height="256" viewBox="0 0 253 256" fill="none" xmlns="http://www.w3.org/2000/svg">
<path d="M241.631 158.465C227.731 209.556 180.917 245.22 127.918 245.22C62.9278 245.22 10.0807 192.449 10.0807 127.612C10.0807 62.7751 62.9278 10.0043 127.918 10.0043C181.223 10.0043 228.037 45.8976 241.783 97.2937L242.012 98.0574H252.399L252.093 96.7591C237.812 39.7881 186.721 0 127.918 0C57.3529 0 0 57.2765 0 127.612C0 197.948 57.3529 255.224 127.918 255.224C186.492 255.224 237.507 215.665 251.864 159L252.169 157.701H241.783L241.554 158.465H241.631Z" fill="black"/>
<path d="M127.613 29.9368C118.219 29.9368 108.902 31.3114 99.9673 33.9079L98.9745 34.137C97.4471 34.5953 95.9961 35.1298 94.4687 35.7408C55.7498 49.7163 29.7844 86.6787 29.7844 127.765C29.7844 168.851 55.7498 205.814 94.3923 219.789C96.0724 220.477 97.8289 221.088 99.4327 221.546L100.349 221.699C109.208 224.295 118.372 225.593 127.613 225.593C181.529 225.593 225.441 181.681 225.441 127.765C225.441 73.8488 181.529 29.9368 127.613 29.9368ZM132.882 132.882H215.208C213.986 153.96 205.203 173.815 190.388 188.936C159.84 187.256 135.326 163.277 132.806 132.882H132.882ZM180.384 197.795C166.484 208.334 150.065 214.367 132.653 215.284V164.193C143.039 181.605 160.528 193.9 180.384 197.719V197.795ZM190.693 66.7465C205.432 81.9439 214.138 101.8 215.284 122.801H132.882C135.402 92.2536 159.993 68.2739 190.693 66.7465ZM132.653 91.4136V40.1702C150.142 41.163 166.637 47.2725 180.613 57.8877C160.68 61.6298 143.116 74.0015 132.653 91.4899V91.4136ZM122.572 40.0938V122.801H113.255C91.0321 122.801 72.9327 104.702 72.9327 82.4021C72.9327 66.2119 83.0134 51.1673 98.0581 45.0578C105.924 42.2321 114.172 40.552 122.572 40.0938ZM122.572 132.882V215.36C114.248 214.902 106 213.222 98.2108 210.472C83.0898 204.363 72.9327 189.395 72.9327 173.128C72.9327 152.203 89.2756 134.486 110.124 132.958H122.572V132.882ZM62.9284 82.4021C62.9284 101.8 74.0019 119.288 91.3376 127.689C74.0019 136.089 62.9284 153.654 62.9284 172.975C62.9284 178.856 63.9212 184.507 65.9068 190.006C49.2584 173.51 39.8651 151.058 39.8651 127.689C39.8651 104.32 49.3348 81.7911 65.9832 65.3718C63.9976 70.8704 63.0048 76.5217 63.0048 82.4021H62.9284Z" fill="black"/>
</svg>
