<svg width="37" height="36" viewBox="0 0 37 36" fill="none" xmlns="http://www.w3.org/2000/svg">
<mask id="path-1-inside-1_215_1608" fill="white">
<path d="M24.4881 18C24.4881 13.9367 21.1396 11.3767 18.1372 11.3767C14.4794 11.3767 11.5139 14.3422 11.5139 18"/>
</mask>
<path d="M25.9881 18C25.9881 13.0321 21.8897 9.87671 18.1372 9.87671V12.8767C20.3895 12.8767 22.9881 14.8414 22.9881 18H25.9881ZM18.1372 9.87671C13.651 9.87671 10.0139 13.5138 10.0139 18H13.0139C13.0139 15.1707 15.3079 12.8767 18.1372 12.8767V9.87671Z" fill="black" mask="url(#path-1-inside-1_215_1608)"/>
<mask id="path-3-inside-2_215_1608" fill="white">
<path d="M11.5139 17.9998C11.5139 22.063 14.8624 24.623 17.8648 24.623C21.5226 24.623 24.4881 21.6575 24.4881 17.9998"/>
</mask>
<path d="M10.0139 17.9998C10.0139 22.9677 14.1123 26.123 17.8648 26.123V23.123C15.6125 23.123 13.0139 21.1584 13.0139 17.9998H10.0139ZM17.8648 26.123C22.351 26.123 25.9881 22.4859 25.9881 17.9998H22.9881C22.9881 20.8291 20.6941 23.123 17.8648 23.123V26.123Z" fill="black" mask="url(#path-3-inside-2_215_1608)"/>
<path d="M35.252 18.0536C35.2507 18.0356 35.25 18.0173 35.25 17.999C35.2499 16.5106 35.0614 15.0683 34.7083 13.6932C32.7967 6.25072 26.0401 0.75 18 0.75C8.47315 0.75 0.75 8.47315 0.75 18C0.75 27.5268 8.47315 35.25 18 35.25C26.0125 35.25 32.7513 29.7868 34.6907 22.3796L35.252 18.0536ZM35.252 18.0536C35.2474 19.5485 35.0514 20.9984 34.6908 22.3792L35.252 18.0536Z" stroke="black" stroke-width="1.5"/>
<path d="M18 30.0784C11.3282 30.0784 5.92125 24.6696 5.92125 17.9997C5.92125 11.3298 11.3301 5.9209 18 5.9209C24.6699 5.9209 30.0788 11.3298 30.0788 17.9997C30.0788 24.6696 24.6719 30.0784 18 30.0784Z" stroke="black" stroke-width="1.5"/>
</svg>
