<svg width="49" height="48" viewBox="0 0 49 48" fill="none" xmlns="http://www.w3.org/2000/svg">
<path d="M27.8374 24.0002C27.8374 18.8082 23.5587 15.5371 19.7224 15.5371C15.0486 15.5371 11.2593 19.3264 11.2593 24.0002" stroke="black" stroke-width="2" stroke-miterlimit="10"/>
<path d="M11.2593 24.0002C11.2593 29.1922 15.5379 32.4633 19.3743 32.4633C24.0481 32.4633 27.8374 28.674 27.8374 24.0002" stroke="black" stroke-width="2" stroke-miterlimit="10"/>
<path d="M47.8618 24C47.8618 22.0164 47.6106 20.093 47.1395 18.2585C44.5907 8.33519 35.5833 1 24.8618 1C12.1593 1 1.86182 11.2975 1.86182 24C1.86182 36.7025 12.1593 47 24.8618 47C35.5466 47 44.5305 39.7145 47.116 29.8383C47.6027 27.9751 47.8644 26.0176 47.8644 24H47.8618Z" stroke="black" stroke-width="2" stroke-miterlimit="10"/>
<path d="M22.7358 40.3923C13.6813 40.3923 6.34351 33.0519 6.34351 24C6.34351 14.9481 13.6839 7.60767 22.7358 7.60767C31.7877 7.60767 39.1281 14.9481 39.1281 24C39.1281 33.0519 31.7903 40.3923 22.7358 40.3923Z" stroke="black" stroke-width="2" stroke-miterlimit="10"/>
</svg>
