<?xml version="1.0" encoding="UTF-8"?><svg id="Layer_2" xmlns="http://www.w3.org/2000/svg" viewBox="0 0 1080 1080"><defs><style>.cls-1{fill:#f5eee5;}.cls-2{fill:#1c1717;}</style></defs><g id="Layer_1-2"><circle class="cls-1" cx="540" cy="540" r="540"/><g><path class="cls-2" d="M959,651.93c-50.56,185.37-220.27,314.84-412.71,314.84-235.86,0-427.74-191.45-427.74-426.76S310.43,113.22,546.29,113.22c193.36,0,363.29,130.23,413.24,316.69l.76,2.83h37.56l-1.18-4.74c-51.64-206.73-236.85-351.1-450.38-351.1-255.92,0-464.13,207.75-464.13,463.1s208.21,463.09,464.13,463.09c212.61,0,397.62-143.6,449.91-349.22l1.21-4.75h-37.65l-.77,2.81Z"/><path class="cls-2" d="M545.25,185.53c-34.09,0-67.85,4.87-100.39,14.49l-.08-.27-3.66,1.09c-5.42,1.62-10.8,3.51-16.34,5.76-140.24,50.76-234.47,184.93-234.47,333.85s94.23,283.11,234.34,333.81c6.17,2.5,12.34,4.63,18.32,6.34l3.23,.66c32.18,9.37,65.48,14.12,99.04,14.12,195.71,0,354.92-159.22,354.92-354.93s-159.22-354.92-354.92-354.92Zm19.02,373.62h298.88c-4.46,76.39-36.31,148.44-90,203.49-110.92-6.13-199.88-93.01-208.88-203.49Zm172.34,235.64c-50.49,38.12-110.09,60.02-173.14,63.59v-185.34c37.74,63.19,101.11,107.84,173.14,121.75Zm37.4-475.6c53.4,55.17,84.95,127.23,89.18,203.52h-298.92c9.03-110.9,98.36-197.8,209.74-203.52Zm-210.53,89.63V222.54c63.49,3.58,123.44,25.75,174.12,64.33-72.43,13.68-136.17,58.41-174.12,121.94Zm-36.45-186.27v300.16h-33.81c-80.64,0-146.24-65.82-146.24-146.71,0-58.81,36.7-113.27,91.17-135.43,28.59-10.24,58.47-16.31,88.88-18.03Zm0,336.61v299.23c-30.3-1.72-60.06-7.74-88.38-17.85-54.83-22.11-91.67-76.6-91.67-135.6,0-76.05,59.39-140.09,134.92-145.77h45.13Zm-216.5-183.15c0,70.31,40.23,133.97,103.2,164.46-62.97,30.49-103.2,94.15-103.2,164.47,0,21.22,3.63,41.91,10.82,61.71-60.31-59.73-94.58-141.2-94.58-226.18s34.29-166.5,94.65-226.24c-7.23,19.84-10.89,40.55-10.89,61.78Z"/></g></g></svg>